PathFileType	4	(X/Y/Z)	72_1_22_p0_0-507.trc
DataRate	CameraRate	NumFrames	NumMarkers	Units	OrigDataRate	OrigDataStartFrame	OrigNumFrames
60.0	60.0	5	27	m	60.0	190	508
Frame#	Time	RHip			RKnee			RAnkle			RBigToe			RSmallToe			RHeel			LHip			LKnee			LAnkle			LBigToe			LSmallToe			LHeel			Neck			Head			Nose			RShoulder			RElbow			RWrist			RThumb			RIndex			RPinky			LShoulder			LElbow			LWrist			LThumb			LIndex			LPinky			
		X1	Y1	Z1	X2	Y2	Z2	X3	Y3	Z3	X4	Y4	Z4	X5	Y5	Z5	X6	Y6	Z6	X7	Y7	Z7	X8	Y8	Z8	X9	Y9	Z9	X10	Y10	Z10	X11	Y11	Z11	X12	Y12	Z12	X13	Y13	Z13	X14	Y14	Z14	X15	Y15	Z15	X16	Y16	Z16	X17	Y17	Z17	X18	Y18	Z18	X19	Y19	Z19	X20	Y20	Z20	X21	Y21	Z21	X22	Y22	Z22	X23	Y23	Z23	X24	Y24	Z24	X25	Y25	Z25	X26	Y26	Z26	X27	Y27	Z27	
190	3.1666666666666665	0.21826747511602157	0.6069808267292384	0.6546177910269114	0.23328764819468495	0.5797313984855714	1.0413767991299276	0.1959438419572317	0.6149896698752031	1.4494900918817835	0.17527717515280206	0.48981598526546793	1.4995555872322288	0.2461754247192136	0.4974363011261467	1.4746236847165881	0.1730964210714978	0.6923954947487347	1.5303264361576063	-0.006223798785824913	0.624232565077745	0.6679484725997721	-0.002842594375829276	0.6089031977240652	1.0500955438442088	0.014820757356533746	0.649895584634408	1.4516557791179159	0.011930375893970276	0.516913803885003	1.4814117591003346	-0.042936870388246506	0.5538130020570318	1.4796709578573615	0.03854914642518772	0.6847170685691332	1.5076603273239308	0.10899184449920939	0.4588943043054079	0.12408973214387414	0.14458422594408366	0.22921478937719586	-0.14988205860010273	0.13618534800149326	0.24359320537873744	0.038679335520507625	0.2673707275059339	0.477153525034464	0.137078788016722	0.4091850960823857	0.5853428557535394	0.3300926080910418	0.49530962241015614	0.5170716134090925	0.5252861590253056	0.46865765405315346	0.47377194724372895	0.6369830808667828	0.4855302102491421	0.4676011455024477	0.6641596064807501	0.488591718813858	0.5249725794706706	0.6818850938347887	-0.05853142502266668	0.45165707938200406	0.14299310442357166	-0.20867737045102594	0.45974026243614735	0.34146528585351227	-0.22232327667041846	0.4147451897365045	0.5826011988604035	-0.1456744865262204	0.41560029143659233	0.6979964357692313	-0.17765377483745037	0.37450400553424323	0.7138522097701869	-0.22672747895282336	0.4160647751747882	0.7248093367697165
191	3.183333333333333	0.22294352728838004	0.6068949369463893	0.6546125519353272	0.2342717571552007	0.5799510695370255	1.050727955576988	0.19597320182003944	0.6149007393860164	1.449645668830305	0.17524265485320015	0.4897858408984645	1.4996461553448002	0.24727551372916648	0.498809845110543	1.4796620312694746	0.17312585039825668	0.6923381792750677	1.5304296480611004	0.0013810972189573255	0.6100401454396306	0.6637230416370206	-0.0027734568455755693	0.6088765899917365	1.050159612468382	0.014817473940583867	0.6500994994285314	1.4518857937265204	0.004154350619410625	0.531047837181439	1.4896887666677463	-0.042942790892728504	0.5539371309600907	1.4797648332899205	0.038475979694454425	0.6850017116868695	1.5078920570054049	0.11310821950414307	0.4589764248841077	0.12426778999107145	0.14479279857603208	0.22933914341726477	-0.15012093251959163	0.14054592446838166	0.2523765259977284	0.039896216072540805	0.26755490056232717	0.4769672712783174	0.13706847429748584	0.4091961544564068	0.5850609391343731	0.3300061821124	0.4957429759594369	0.502474569952088	0.5211337729603301	0.4739194333687999	0.4994371042792508	0.6453695807844267	0.4850081761489508	0.48145508955414795	0.6687595435577984	0.4807826459735017	0.5125971036608618	0.6738854434878355	-0.05843162446777283	0.4514464313805238	0.14298597784057668	-0.2049189925848624	0.470469008760017	0.33716136319880546	-0.21974680031976376	0.40228193675953017	0.5820334732041685	-0.14157013378091995	0.41723744034241483	0.7065351755195399	-0.18040476272998723	0.36353761461525524	0.7150940469761508	-0.2279905185821911	0.4147050626983114	0.7322436354369426
192	3.2	0.22295707648900828	0.6067078069937719	0.6544838431273581	0.23968203774069996	0.5922117557943417	1.0562682373827137	0.19387811335967203	0.633265075036858	1.4544787609198484	0.17540575050483742	0.48992953256185096	1.4995389858493224	0.24743089937420135	0.49910977675827833	1.4796033274048712	0.1730004353112971	0.6941501014422536	1.5260326319158195	0.001915641793128197	0.6098390463531361	0.6606864520169301	0.0020619378920740112	0.6094474431063892	1.0507279057518053	0.014800966242416488	0.6516053954642868	1.4480701365301074	0.007626487527066885	0.5199004963444808	1.4826908431707682	-0.046220601262727104	0.5396473244592922	1.4672198288499283	0.03843500810371459	0.6845195081166995	1.5077762725866104	0.11323560655673141	0.4594129189525185	0.12416746854713546	0.14467331277001652	0.22926870970359978	-0.14997429400180454	0.13614037022704395	0.24369276374567878	0.03858330445707591	0.267573938364768	0.4767621924442558	0.13690046010922075	0.40922990264231324	0.5850580087759957	0.330086380768726	0.49570195607767414	0.5177755294266694	0.5330281056302323	0.467982564596416	0.48877286836684597	0.6513109167046897	0.4843889355500206	0.4806323895891899	0.6693467050685966	0.4876825208989956	0.5104407183243534	0.6781081152065391	-0.05536306989094448	0.43923076851780074	0.1412164054814724	-0.19836371785063267	0.4701154826507729	0.3441118848273944	-0.22022938491694	0.3994230113383938	0.5811224991223892	-0.14805194560788904	0.41368578175793963	0.7103600447418745	-0.1809138315520647	0.36022096890428545	0.7186595171667951	-0.23244433711864526	0.41277330315224464	0.7320805069646623
193	3.216666666666667	0.22317125686437767	0.6065720874495769	0.6544291145363004	0.23962864475710552	0.5924447213385959	1.0564562593644673	0.19391514790043501	0.6331184968987981	1.4547299117492065	0.17544668806199384	0.48995775130207836	1.4995759217169264	0.25268615804483147	0.5104903847404879	1.4869760536692773	0.17312497587365616	0.6923055150363417	1.530419178884108	0.002082856280321926	0.6096347483237445	0.6605620510812003	0.004311124997889485	0.5948022084846586	1.0481548613095186	0.014847259495432868	0.6500212932700463	1.4518623126938794	0.0068557708279175875	0.5162561387130018	1.4808084348535522	-0.046346328754785435	0.539534316790702	1.4673394641624613	0.03827660362507916	0.6843747867808577	1.5079149490854575	0.11364559149490523	0.45998209077747265	0.1209839249620168	0.14864714014771993	0.23063304303587306	-0.14995665824454732	0.14289007694626998	0.2416213738839367	0.0385251703566383	0.27742975260086544	0.48709803805885415	0.1386945177164809	0.40943454949379116	0.584716156050901	0.33401137048534474	0.48956282405440205	0.5067290915570904	0.530195461352825	0.46602114307472114	0.5022940639615655	0.6603548228996626	0.4832365179019607	0.47937898833074394	0.680116882888011	0.4841958337041604	0.4950506863304322	0.6819504743089843	-0.05831319327112214	0.4514786094700812	0.14305945781862192	-0.19027055096418052	0.48318300508067424	0.347428562121829	-0.2163220863193391	0.3893950946675341	0.589251571151228	-0.14427587011278814	0.4026838417354886	0.7114396894593612	-0.18084835141664074	0.3596235819509152	0.7299246224006943	-0.22856668992735568	0.4137771351654259	0.7361201525664594
194	3.2333333333333334	0.22454089041457367	0.5916494293923222	0.6536281123272379	0.2387899730929383	0.5940954319901514	1.05692135871392	0.19596207004030092	0.6170326391515656	1.4458854877191483	0.17553591402693075	0.48991559946437097	1.4996399208021662	0.2475422624562	0.4992904817081123	1.4798447477632888	0.17289309710785572	0.693554277546648	1.526247231116886	0.0045564426131353	0.5965452091711273	0.6555218336271509	0.004479047580322679	0.5946899219758245	1.0481802842039267	0.014802093523492127	0.651780345705334	1.4483054532288124	0.006776816381135148	0.5161194869513546	1.4807627721706342	-0.04629178727112574	0.5398163284466252	1.4674773185876873	0.0382689721219351	0.6845290003720221	1.5080402781173605	0.1134602202346173	0.4593285707743962	0.12429066601255184	0.15707086518314	0.24009886314770243	-0.1496284976237208	0.14097466168453066	0.2531219654133086	0.039914871615558505	0.2793093441234541	0.47375136466397505	0.14009813834827636	0.4092039500466296	0.5844746951291372	0.337813125332324	0.4845806511033714	0.49748887907269	0.538859745729255	0.470175484629683	0.500674647141619	0.6720457659839807	0.48258694257276136	0.47914668509181535	0.6838787756450564	0.4774487154934969	0.484002783301415	0.6793181050277923	-0.05117961935318855	0.44001257887704065	0.14132827881714127	-0.1868925045369859	0.49479082413363074	0.35350728510322865	-0.21678440491910722	0.38921664091687086	0.5925501552791496	-0.1434614868418081	0.4023174381398155	0.7196075417459776	-0.18080272853894858	0.3594739277521834	0.7299168906712229	-0.22820782464122688	0.4139852552365403	0.732661554681443
